<svg id="Layer_1" data-name="Layer 1" xmlns="http://www.w3.org/2000/svg" xmlns:xlink="http://www.w3.org/1999/xlink" viewBox="0 0 1406.9 507.7"><defs><style>.cls-1{fill:none;}.cls-2{fill:#4a8cff;}.cls-3{clip-path:url(#clip-path);}.cls-4{fill:#e5e5e4;}.cls-5{clip-path:url(#clip-path-2);}.cls-6{fill:#fff;}.cls-7{clip-path:url(#clip-path-3);}.cls-8{clip-path:url(#clip-path-4);}</style><clipPath id="clip-path" transform="translate(649.8 223.8)"><circle class="cls-1" cx="-395.9" cy="30.1" r="242"/></clipPath><clipPath id="clip-path-2" transform="translate(649.8 223.8)"><circle class="cls-1" cx="-395.9" cy="30.1" r="237.2"/></clipPath><clipPath id="clip-path-3" transform="translate(649.8 223.8)"><circle class="cls-1" cx="-395.9" cy="30.1" r="218.2"/></clipPath><clipPath id="clip-path-4" transform="translate(649.8 223.8)"><path class="cls-1" d="M-329.5,1.8l61.7-45.1c5.4-4.4,9.5-3.4,9.5,4.7V98.9c0,9.1-5.1,8.1-9.5,4.7l-61.7-45.1Zm-208.8-40V64.2A42,42,0,0,0-496.1,106h149.5a7.75,7.75,0,0,0,7.7-7.6V-4.1a42,42,0,0,0-42.2-41.8H-530.6A7.84,7.84,0,0,0-538.3-38.2Z"/></clipPath></defs><path class="cls-2" d="M187.7-64.8h-.1a94.85,94.85,0,1,0,.1,0ZM227.8,70.3a56.92,56.92,0,1,1,0-80.6l.1.1A56.79,56.79,0,0,1,227.8,70.3Z" transform="translate(649.8 223.8)"/><path class="cls-2" d="M73.8,87.5,64.3,87H-21.1L92.8-26.9l-.5-9.5a28.76,28.76,0,0,0-28-28l-9.5-.5H-87.5l.5,9.5a29.41,29.41,0,0,0,28,28l9.5.5H35.9L-78,87l.5,9.5a29,29,0,0,0,28,28l9.5.5H102.3l-.5-9.5C100.5,99.8,89.4,88.4,73.8,87.5Z" transform="translate(649.8 223.8)"/><path class="cls-2" d="M681.1-64.8a75.94,75.94,0,0,0-56.9,25.7,75.85,75.85,0,0,0-99.4-12.7c-7.3-8.3-23.9-13-33.4-13V125l9.5-.5c15.8-1,27.4-12.2,28-28l.5-9.5V20.6l.5-9.5a42,42,0,0,1,4.7-19,37.87,37.87,0,0,1,51.8-13.8A38,38,0,0,1,600.2-7.9h-.1a40.78,40.78,0,0,1,4.7,19l.5,9.5V87l.5,9.5a29.09,29.09,0,0,0,27.9,28l9.5.5V20.6l.5-9.5A40.89,40.89,0,0,1,648.4-8a37.92,37.92,0,0,1,51.9-13.7A38,38,0,0,1,714.1-7.9a41.93,41.93,0,0,1,4.6,19l.5,9.5V87l.5,9.5a29,29,0,0,0,27.9,28l9.5.5V11.1A76.07,76.07,0,0,0,681.1-64.8Z" transform="translate(649.8 223.8)"/><path class="cls-2" d="M454-37a94.86,94.86,0,1,0,.1,134.1A94.83,94.83,0,0,0,454-37ZM427.1,70.3a56.92,56.92,0,1,1,0-80.6l.1.1A56.79,56.79,0,0,1,427.1,70.3Z" transform="translate(649.8 223.8)"/><g class="cls-3"><path class="cls-4" d="M-649.8-223.8h507.7V283.9H-649.8Z" transform="translate(649.8 223.8)"/></g><g class="cls-5"><path class="cls-6" d="M-645-219h498.2V279.2H-645Z" transform="translate(649.8 223.8)"/></g><g class="cls-7"><path class="cls-2" d="M-626-200h460.2V260.2H-626Z" transform="translate(649.8 223.8)"/></g><g class="cls-8"><path class="cls-6" d="M-550.1-57.7h303.7V117.8H-550.1Z" transform="translate(649.8 223.8)"/></g></svg>